HIERARCHY
ROOT hip
{
	OFFSET 0.000000 0.000000 0.000000 
	CHANNELS 6 Xposition Yposition Zposition Xrotation Zrotation Yrotation
	JOINT abdomen
	{
		OFFSET 0.000000 3.402643 0.000000 
		CHANNELS 3 Xrotation Zrotation Yrotation
		JOINT chest
		{
			OFFSET 0.000000 8.438565 -0.680529 
			CHANNELS 3 Xrotation Zrotation Yrotation
			JOINT neck
			{
				OFFSET 0.000000 10.207942 -0.272212 
				CHANNELS 3 Xrotation Zrotation Yrotation
				JOINT head
				{
					OFFSET 0.000000 3.130431 0.000000 
					CHANNELS 3 Xrotation Zrotation Yrotation
					End Site
					{
						OFFSET 0.000000 3.130435 0.000000 
					}
				}
			}
			JOINT lCollar
			{
				OFFSET 3.470700 6.669187 -0.816635 
				CHANNELS 3 Yrotation Zrotation Xrotation
				JOINT lShldr
				{
					OFFSET 3.198488 0.000000 0.000000 
					CHANNELS 3 Zrotation Yrotation Xrotation
					JOINT lForeArm
					{
						OFFSET 10.139888 0.000000 0.000000 
						CHANNELS 3 Yrotation Zrotation Xrotation
						JOINT lHand
						{
							OFFSET 8.370511 0.000000 0.000000 
							CHANNELS 3 Zrotation Yrotation Xrotation
							End Site
							{
								OFFSET 4.083176 0.000000 0.000000 
							}
						}
					}
				}
			}
			JOINT rCollar
			{
				OFFSET -3.470700 6.669187 -0.816635 
				CHANNELS 3 Yrotation Zrotation Xrotation
				JOINT rShldr
				{
					OFFSET -3.198488 0.000000 0.000000 
					CHANNELS 3 Zrotation Yrotation Xrotation
					JOINT rForeArm
					{
						OFFSET -10.139888 0.000000 0.000000 
						CHANNELS 3 Yrotation Zrotation Xrotation
						JOINT rHand
						{
							OFFSET -8.370511 0.000000 0.000000 
							CHANNELS 3 Zrotation Yrotation Xrotation
							End Site
							{
								OFFSET -4.083176 0.000000 0.000000 
							}
						}
					}
				}
			}
		}
	}
	JOINT lThigh
	{
		OFFSET 5.308129 -1.633274 1.361059 
		CHANNELS 3 Xrotation Zrotation Yrotation
		JOINT lShin
		{
			OFFSET -2.041588 -20.007561 0.000000 
			CHANNELS 3 Xrotation Zrotation Yrotation
			JOINT lFoot
			{
				OFFSET 0.000000 -19.190928 -1.224953 
				CHANNELS 3 Xrotation Yrotation Zrotation
				End Site
				{
					OFFSET 0.000000 -2.449906 4.627600 
				}
			}
		}
	}
	JOINT rThigh
	{
		OFFSET -5.308129 -1.633274 1.361059 
		CHANNELS 3 Xrotation Zrotation Yrotation
		JOINT rShin
		{
			OFFSET 2.041588 -20.007561 0.000000 
			CHANNELS 3 Xrotation Zrotation Yrotation
			JOINT rFoot
			{
				OFFSET 0.000000 -19.190928 -1.224953 
				CHANNELS 3 Xrotation Yrotation Zrotation
				End Site
				{
					OFFSET 0.000000 -2.449906 4.627600 
				}
			}
		}
	}
}
MOTION
Frames: 16
Frame Time: 0.011111
40.725998 83.134727 132.588196 156.783691 174.902908 -0.822919 56.200573 8.726439 -6.139752 -47.023804 0.664695 -3.413171 -20.476669 -33.536499 -2.464218 30.402197 35.278984 -9.585559 2.971642 -4.490881 1.927035 -52.253933 -30.237217 50.815651 -60.164734 9.278584 12.463119 8.524705 12.647240 -69.329483 -4.704987 0.510038 2.448925 62.996571 37.122974 74.350403 59.827225 -9.262280 12.329314 -8.534408 -12.637552 25.833845 -17.968554 12.480375 5.825703 31.910114 -5.221351 -5.102866 -34.516430 -12.373593 -9.561831 -15.967898 0.565733 -3.345271 31.490953 5.257002 5.016622 -38.238392 3.431907 2.736316 
40.725365 83.131279 132.567444 156.909836 175.101791 -0.609760 56.330124 8.787233 -6.480090 -47.031662 0.718866 -3.519151 -20.743555 -33.680157 -2.294848 30.821949 35.451241 -9.321369 2.971642 -4.490881 1.927035 -52.180958 -30.062370 50.656998 -60.442673 9.303769 12.601835 8.524705 12.647240 -68.655655 -4.704987 0.510038 2.448925 63.114349 37.206127 74.508194 59.711071 -9.255632 12.280447 -8.534408 -12.637552 25.785013 -17.806101 12.192031 5.759673 31.979734 -5.221383 -5.099266 -34.602940 -12.399143 -9.585408 -15.895240 0.321876 -3.292454 31.590841 5.242415 5.060328 -38.270187 3.192067 2.537158 
40.737934 83.133484 132.534439 156.702866 175.170837 -1.055533 56.016544 8.494823 -6.604573 -46.852699 0.868533 -3.335648 -21.049780 -33.660950 -2.189391 31.217117 35.366367 -9.166420 2.971642 -4.490881 1.927035 -52.129845 -29.994669 50.674801 -60.570847 9.314041 12.660345 8.524705 12.647240 -68.323616 -4.704987 0.510038 2.448925 63.149368 37.273136 74.613235 59.720436 -9.252504 12.282361 -8.534408 -12.637552 25.794781 -17.949118 12.236279 6.015274 32.050190 -5.211067 -5.112206 -34.566994 -12.288105 -9.526574 -16.168762 0.351412 -3.013619 31.672253 5.231938 5.045934 -38.197681 3.342958 2.660057 
40.753338 83.117752 132.523132 156.776672 175.079437 -1.311259 56.111794 8.353833 -6.486039 -46.815598 0.936971 -3.292414 -21.058332 -33.456432 -2.197346 31.191111 35.088921 -9.177521 2.971642 -4.490881 1.927035 -52.059277 -29.956516 50.931175 -60.666676 9.319950 12.697740 8.524705 12.647240 -68.147835 -4.704987 0.510038 2.448925 63.132805 37.332493 74.690376 59.732708 -9.258598 12.291180 -8.534408 -12.637552 25.843607 -17.834253 12.434898 6.234366 32.129467 -5.205873 -5.138055 -34.539112 -12.342500 -9.540645 -16.095911 0.536340 -2.905762 31.769430 5.246906 5.048869 -38.111607 3.519882 2.815338 
40.753647 83.115562 132.513077 156.801620 174.932846 -1.190527 56.134129 8.579892 -6.410074 -46.785492 0.890493 -3.299946 -21.028475 -33.224083 -2.174917 31.017975 34.811245 -9.142488 2.971642 -4.490881 1.927035 -52.079414 -29.966024 50.892799 -60.675991 9.316687 12.699669 8.524705 12.647240 -67.952530 -4.704987 0.510038 2.448925 63.148090 37.410091 74.794456 59.720436 -9.252504 12.282361 -8.534408 -12.637552 26.019386 -17.919472 12.529039 5.852505 32.160099 -5.201490 -5.129811 -34.452568 -12.290214 -9.496187 -16.081152 0.683359 -2.935266 31.871340 5.222397 5.070525 -38.130066 3.526638 2.834007 
40.749882 83.123421 132.480087 156.791992 174.934372 -1.169593 56.040154 8.627819 -6.439007 -46.687416 0.861124 -3.302324 -21.080292 -33.087299 -2.088324 31.023176 34.636555 -8.972146 2.971642 -4.490881 1.927035 -52.168594 -29.925795 50.715252 -60.675991 9.316687 12.699669 8.524705 12.647240 -67.874397 -4.704987 0.510038 2.448925 63.153198 37.488110 74.882355 59.678539 -9.251471 12.269229 -8.534408 -12.637552 26.185406 -17.903818 12.514162 5.765180 32.158821 -5.205933 -5.150375 -34.320892 -12.309346 -9.477803 -16.122799 0.702551 -2.891341 31.979553 5.222693 5.099573 -38.263859 3.579166 2.848980 
40.741394 83.130325 132.466248 156.866592 175.074356 -0.996409 56.041065 8.695886 -6.624689 -46.676147 0.860839 -3.367664 -21.121363 -33.086040 -1.933399 31.065332 34.765537 -8.642296 2.971642 -4.490881 1.927035 -52.278931 -29.953655 50.679996 -60.634224 9.316618 12.684659 8.524705 12.647240 -67.688858 -4.704987 0.510038 2.448925 63.178070 37.555534 75.026001 59.582607 -9.242504 12.222889 -8.534408 -12.637552 26.302593 -17.826794 12.271129 5.409855 32.129372 -5.211096 -5.120056 -34.440788 -12.131204 -9.369849 -16.112232 0.497668 -2.962310 32.070339 5.213073 5.096048 -38.350643 3.594988 2.866860 
40.743904 83.124992 132.445206 156.934937 175.067993 -1.003340 56.029938 8.699537 -6.621703 -46.627659 0.868179 -3.358251 -21.187260 -32.991776 -1.750722 31.028091 34.788483 -8.291650 2.971642 -4.490881 1.927035 -52.178410 -29.915901 50.901142 -60.720558 9.326270 12.729915 8.524705 12.647240 -67.434952 -4.704987 0.510038 2.448925 63.161518 37.614895 75.122681 59.519054 -9.238256 12.197538 -8.534408 -12.637552 26.449078 -17.728323 12.309430 5.517582 32.129787 -5.205880 -5.128359 -34.500271 -12.194467 -9.429425 -16.040840 0.526803 -2.998024 32.108536 5.218325 5.119436 -38.426811 3.639721 2.859792 
40.732281 83.127815 132.434204 157.101028 174.993668 -0.743651 56.208927 8.885408 -6.442423 -46.641178 0.716519 -3.522569 -21.373299 -32.600540 -1.629174 31.207268 34.312977 -8.042648 2.971642 -4.490881 1.927035 -52.320751 -30.060541 50.876682 -60.538536 9.310001 12.639130 8.524705 12.647240 -67.718147 -4.704987 0.510038 2.448925 63.111179 37.626747 75.081184 59.560970 -9.239450 12.212188 -8.534408 -12.637552 26.449078 -17.620319 12.289495 5.328072 32.158730 -5.211175 -5.132384 -34.473404 -12.236709 -9.459561 -15.832129 0.497675 -3.193915 32.159100 5.213089 5.113578 -38.562462 3.668251 2.867003 
40.737309 83.133156 132.404648 157.018143 174.911591 -0.956027 56.000881 8.767478 -6.234317 -46.545036 0.675321 -3.442234 -21.529083 -32.184128 -1.544926 31.544306 33.647095 -7.837437 2.971642 -4.490881 1.927035 -52.342266 -30.148161 51.033607 -60.603306 9.317428 12.671823 8.524705 12.647240 -67.093155 -4.704987 0.510038 2.448925 63.032768 37.522411 74.935081 59.656902 -9.248471 12.256937 -8.534408 -12.637552 26.390484 -17.661274 12.525205 5.823627 32.239685 -5.196277 -5.145063 -34.374973 -12.443830 -9.579571 -15.869165 0.644200 -3.188215 32.169498 5.211930 5.104322 -38.477215 3.724182 2.933918 
40.744221 83.138817 132.440796 157.224258 174.851547 -0.675730 56.317825 8.977489 -6.211372 -46.738918 0.654305 -3.483682 -21.659128 -31.980623 -1.367196 31.871647 33.348919 -7.412057 2.971642 -4.490881 1.927035 -52.341919 -30.128628 51.170338 -60.773193 9.327113 12.745549 8.524705 12.647240 -66.409554 -4.704987 0.510038 2.448925 63.013664 37.386295 74.791924 59.711071 -9.255632 12.280447 -8.534408 -12.637552 26.419779 -17.631155 12.475801 5.447932 32.348427 -5.201695 -5.136686 -34.479774 -12.274309 -9.488817 -15.676600 0.653792 -3.281022 32.178600 5.217549 5.106694 -38.434441 3.562299 2.795383 
40.752705 83.122795 132.428238 157.228210 174.756454 -0.979156 56.204288 8.853028 -6.058147 -46.662292 0.638050 -3.417018 -21.906555 -31.873856 -1.046998 32.163265 33.467964 -6.764214 2.971642 -4.490881 1.927035 -52.441776 -30.127312 51.002911 -60.645092 9.317525 12.686825 8.524705 12.647240 -66.604866 -4.704987 0.510038 2.448925 63.176765 37.379574 74.727562 59.636635 -9.250396 12.254537 -8.534408 -12.637552 26.380716 -17.641481 12.749534 5.853059 32.468594 -5.186865 -5.162530 -34.677761 -12.400879 -9.588678 -15.633724 0.858908 -3.098148 32.170494 5.202583 5.111535 -38.334335 3.566608 2.830009 
40.753021 83.107697 132.456528 157.375198 174.688995 -0.707244 56.358250 9.157094 -6.128191 -46.699398 0.604338 -3.478153 -21.135048 -31.758478 -0.963912 29.451078 34.297047 -6.773814 2.971642 -4.490881 1.927035 -52.553177 -30.213734 50.840683 -60.464272 9.306314 12.612714 8.524705 12.647240 -66.751350 -4.704987 0.510038 2.448925 63.283165 37.443623 74.699326 59.582607 -9.242504 12.222889 -8.534408 -12.637552 26.283064 -17.661903 12.760129 5.714561 32.548534 -5.176559 -5.185979 -34.584766 -12.360106 -9.563053 -15.461373 0.878259 -3.173542 32.209328 5.207918 5.116441 -38.368057 3.425249 2.701020 
40.749565 83.099854 132.421631 157.264648 174.683731 -1.006542 56.082958 8.983461 -6.024215 -46.534790 0.571426 -3.410431 -21.571661 -31.140707 -0.613212 29.687202 33.541790 -6.146492 2.971642 -4.490881 1.927035 -52.464169 -30.263748 50.935238 -60.431950 9.302179 12.591530 8.524705 12.647240 -66.487686 -4.704987 0.510038 2.448925 63.313751 37.442356 74.622665 59.604252 -9.245546 12.233597 -8.534408 -12.637552 26.136578 -17.682629 12.907620 6.179582 32.607460 -5.182061 -5.183872 -34.585327 -12.412325 -9.604106 -15.532986 0.946677 -3.086833 32.219639 5.202714 5.125613 -38.345764 3.659431 2.884204 
40.739193 83.108650 132.413147 157.296005 174.739517 -1.011211 55.991817 9.060902 -6.130679 -46.455505 0.519065 -3.435310 -21.773998 -30.826864 -0.226283 29.956308 33.214272 -5.329981 2.971642 -4.490881 1.927035 -52.304211 -30.256092 50.924797 -60.431950 9.302179 12.591530 8.524705 12.647240 -66.194710 -4.704987 0.510038 2.448925 63.505596 37.561512 74.637390 59.475765 -9.232060 12.176164 -8.534408 -12.637552 25.765484 -17.629715 12.806349 6.121662 32.647369 -5.181977 -5.177628 -34.598919 -12.269817 -9.493531 -15.554810 0.849327 -3.110724 32.249672 5.202589 5.118489 -38.359158 3.721016 2.936280 
40.732597 83.111794 132.413147 157.373886 174.737289 -1.078413 55.973488 9.206029 -6.354250 -46.361710 0.552159 -3.294913 -21.997768 -30.752501 0.230744 30.403566 33.263916 -4.346254 2.971642 -4.490881 1.927035 -52.224487 -30.266905 50.795086 -60.452152 9.299913 12.594019 8.524705 12.647240 -65.931046 -4.704987 0.510038 2.448925 63.764576 37.765842 74.725533 59.198547 -9.204898 12.048111 -8.534408 -12.637552 25.472515 -17.515232 12.837940 6.281075 32.657017 -5.176675 -5.206142 -34.564842 -12.276463 -9.493916 -15.483600 0.858765 -3.144722 32.289242 5.202718 5.122003 -38.322514 3.684715 2.928412 
